# xmcd
#
# Track frame offsets:
#	150
#	16350
#	26207
#	39580
#	50212
#	62175
#	75152
#	86787
#	101570
#	113915
#	124782
#
# Disc length: 1953 seconds
#
# Revision: 3
# Processed by: cddbd v1.5.2PL0 Copyright (c) Steve Scherf et al.
# Submitted via: audiograbber 1.83.01
#
DISCID=90079f0b
DTITLE=Waylon Jennings - A Man Called Hoss
DYEAR=1987
DGENRE=Country Rock
TTITLE0=Prologue
TTITLE1=Chapter One....Childhood - Littlefield
TTITLE2=Chapter Two....Texas - You'll Never Take Texas Out Of Me
TTITLE3=Chapter Three....First Love - You Went Out With Rock 'n' Roll
TTITLE4=Chapter Four....Lost Love - A Love Song (I Can't Sing Anymore)
TTITLE5=Chapter Five....Nashville - If Ole Hank Could Only See Us Now
TTITLE6=Chapter Six....Crazies - Rough And Rowdy Days
TTITLE7=Chapter Seven....Drugs - I'm Livin' Proof (There's Life After You)
TTITLE8=Chapter Eight....Jessi - You Deserve The Stars In My Crown
TTITLE9=Chapter Nine....Reflections - Turn It All Around
TTITLE10=Chapter Ten....The Beginnings - Where Do We Go From Here
EXTD=
EXTT0=
EXTT1=
EXTT2=
EXTT3=
EXTT4=
EXTT5=
EXTT6=
EXTT7=
EXTT8=
EXTT9=
EXTT10=
PLAYORDER=
